<?xml version="1.0" encoding="UTF-8"?>
<svg xmlns="http://www.w3.org/2000/svg" onmouseup="{ if(window.parent.document.onmouseup) window.parent.document.onmouseup(arguments[0]);}" xml:space="preserve" style="enable-background:new 0 0 36 36;" viewBox="0 0 36 36" y="0px" x="0px" id="S_GlobeGrid_18_N_2x" version="1.1" xmlns:xlink="http://www.w3.org/1999/xlink"><style type="text/css">
	.st0{fill:#FFFFFF;}
</style><path data-cppathid="10000" d="M17,0C7.6,0,0,7.6,0,17s7.6,17,17,17s17-7.6,17-17S26.4,0,17,0z M30.7,16h-5.6c-0.1-2-0.3-4-0.9-6h4.5  C30,11.8,30.6,13.9,30.7,16z M27.4,8h-3.7c-0.5-1.5-1.3-2.8-2.2-4C23.8,4.8,25.8,6.2,27.4,8z M16,18v6h-4.3c-0.5-2-0.9-4-0.9-6H16z   M10.8,16c0.1-2,0.4-4,0.9-6H16v6H10.8z M18,18h5.2c-0.1,2-0.4,4-0.9,6H18V18z M18,16v-6h4.3c0.5,2,0.9,4,0.9,6H18z M21.6,8H18V3.6  C19.3,4.2,20.6,5.7,21.6,8z M16,3.6V8h-3.6C13.4,5.7,14.7,4.2,16,3.6z M12.5,4c-0.9,1.2-1.7,2.6-2.2,4H6.6C8.2,6.2,10.2,4.8,12.5,4z   M5.1,10h4.5c-0.5,2-0.8,4-0.9,6H3.3C3.4,13.9,4,11.8,5.1,10z M3.3,18h5.6c0.1,2,0.3,4,0.9,6H5.1C4,22.2,3.4,20.1,3.3,18z M6.6,26  h3.7c0.5,1.5,1.3,2.8,2.2,4C10.2,29.2,8.2,27.8,6.6,26z M12.4,26H16v4.4C14.7,29.8,13.4,28.3,12.4,26z M18,30.4V26h3.6  C20.6,28.3,19.3,29.8,18,30.4z M21.5,30c0.9-1.2,1.7-2.6,2.2-4h3.7C25.9,27.8,23.8,29.2,21.5,30z M28.9,24h-4.5c0.5-2,0.8-4,0.9-6  h5.6C30.6,20.1,30,22.2,28.9,24z" class="st0"/></svg>